<?xml version="1.0" encoding="utf-8"?>
<!-- Generator: Adobe Illustrator 16.0.0, SVG Export Plug-In . SVG Version: 6.00 Build 0)  -->
<!DOCTYPE svg PUBLIC "-//W3C//DTD SVG 1.1//EN" "http://www.w3.org/Graphics/SVG/1.1/DTD/svg11.dtd">
<svg version="1.1" id="Capa_1" focusable="false" xmlns="http://www.w3.org/2000/svg" xmlns:xlink="http://www.w3.org/1999/xlink"
	 x="0px" y="0px" width="704px" height="704px" viewBox="0 0 704 704" enable-background="new 0 0 704 704" xml:space="preserve">
<path fill="#F4A240" d="M638,88H66c-36.451,0-66,29.549-66,66v396c0,36.451,29.549,66,66,66h572c36.451,0,66-29.549,66-66V154
	C704,117.549,674.451,88,638,88z M638,154v56.107c-30.83,25.106-79.981,64.145-185.057,146.424
	c-23.157,18.214-69.027,61.974-100.943,61.463c-31.911,0.516-77.796-43.256-100.943-61.463
	C145.998,274.264,96.834,235.217,66,210.107V154H638z M66,550V294.797c31.507,25.095,76.188,60.31,144.29,113.638
	c30.054,23.657,82.685,75.881,141.71,75.563c58.736,0.317,110.7-51.149,141.698-75.553C561.799,355.12,606.492,319.895,638,294.799
	V550H66z"/>
</svg>
