<?xml version="1.0" encoding="utf-8"?>
<!-- Generator: Adobe Illustrator 16.0.0, SVG Export Plug-In . SVG Version: 6.00 Build 0)  -->
<!DOCTYPE svg PUBLIC "-//W3C//DTD SVG 1.1//EN" "http://www.w3.org/Graphics/SVG/1.1/DTD/svg11.dtd">
<svg version="1.1" id="Capa_1" focusable="false" xmlns="http://www.w3.org/2000/svg" xmlns:xlink="http://www.w3.org/1999/xlink"
	 x="0px" y="0px" width="704px" height="704px" viewBox="0 0 704 704" enable-background="new 0 0 704 704" xml:space="preserve">
<path fill="#F4A240" d="M352.138,193.875c-87.45,0-157.988,70.538-157.988,157.987c0,87.45,70.538,157.987,157.988,157.987
	s157.987-70.537,157.987-157.987C510.125,264.413,439.588,193.875,352.138,193.875z M352.138,454.575
	c-56.513,0-102.713-46.062-102.713-102.713c0-56.65,46.062-102.712,102.713-102.712c56.649,0,102.712,46.062,102.712,102.712
	C454.85,408.513,408.65,454.575,352.138,454.575L352.138,454.575z M553.438,187.413c0,20.487-16.5,36.85-36.85,36.85
	c-20.488,0-36.851-16.5-36.851-36.85s16.5-36.85,36.851-36.85C536.938,150.562,553.438,167.062,553.438,187.413z M658.075,224.812
	C655.737,175.45,644.463,131.725,608.3,95.7c-36.024-36.025-79.75-47.3-129.112-49.775c-50.875-2.887-203.362-2.887-254.237,0
	C175.725,48.263,132,59.538,95.837,95.562s-47.3,79.75-49.775,129.112c-2.888,50.875-2.888,203.362,0,254.237
	C48.4,528.275,59.675,572,95.837,608.025c36.163,36.024,79.75,47.3,129.113,49.774c50.875,2.888,203.362,2.888,254.237,0
	c49.362-2.337,93.088-13.612,129.112-49.774c36.025-36.025,47.3-79.75,49.775-129.113
	C660.963,428.037,660.963,275.688,658.075,224.812z M592.35,533.5c-10.725,26.95-31.487,47.713-58.574,58.575
	c-40.562,16.087-136.812,12.375-181.638,12.375s-141.213,3.575-181.638-12.375c-26.95-10.726-47.712-31.487-58.575-58.575
	C95.837,492.938,99.55,396.688,99.55,351.862c0-44.825-3.575-141.212,12.375-181.637c10.725-26.95,31.488-47.712,58.575-58.575
	c40.562-16.087,136.812-12.375,181.638-12.375S493.35,95.7,533.775,111.65c26.949,10.725,47.712,31.488,58.574,58.575
	c16.088,40.562,12.375,136.812,12.375,181.637C604.725,396.688,608.438,493.075,592.35,533.5z"/>
</svg>
