<?xml version="1.0" encoding="utf-8"?>
<!-- Generator: Adobe Illustrator 16.0.0, SVG Export Plug-In . SVG Version: 6.00 Build 0)  -->
<!DOCTYPE svg PUBLIC "-//W3C//DTD SVG 1.1//EN" "http://www.w3.org/Graphics/SVG/1.1/DTD/svg11.dtd">
<svg version="1.1" id="Capa_1" focusable="false" xmlns="http://www.w3.org/2000/svg" xmlns:xlink="http://www.w3.org/1999/xlink"
	 x="0px" y="0px" width="704px" height="704px" viewBox="0 0 704 704" enable-background="new 0 0 704 704" xml:space="preserve">
<path fill="#F4A240" d="M631.634,208.609c0.447,6.254,0.447,12.508,0.447,18.762c0,190.74-145.177,410.517-410.518,410.517
	c-81.747,0-157.685-23.676-221.563-64.771c11.615,1.339,22.781,1.786,34.842,1.786c67.451,0,129.543-22.781,179.127-61.645
	c-63.432-1.341-116.589-42.883-134.904-100.062c8.935,1.34,17.868,2.233,27.25,2.233c12.954,0,25.909-1.787,37.969-4.913
	C78.173,397.116,28.587,339.046,28.587,268.914v-1.786c19.208,10.721,41.544,17.421,65.218,18.314
	c-38.863-25.909-64.324-70.132-64.324-120.163c0-26.802,7.146-51.37,19.654-72.812c71.025,87.553,177.788,144.73,297.502,150.985
	c-2.233-10.721-3.574-21.887-3.574-33.055c0-79.513,64.325-144.284,144.284-144.284c41.543,0,79.065,17.421,105.422,45.563
	c32.607-6.253,63.877-18.315,91.573-34.843c-10.722,33.503-33.503,61.646-63.432,79.512c29.036-3.125,57.179-11.167,83.086-22.334
	C684.346,162.599,659.775,188.06,631.634,208.609L631.634,208.609z"/>
</svg>
