<?xml version="1.0" encoding="utf-8"?>
<!-- Generator: Adobe Illustrator 16.0.0, SVG Export Plug-In . SVG Version: 6.00 Build 0)  -->
<!DOCTYPE svg PUBLIC "-//W3C//DTD SVG 1.1//EN" "http://www.w3.org/Graphics/SVG/1.1/DTD/svg11.dtd">
<svg version="1.1" id="Capa_1" xmlns="http://www.w3.org/2000/svg" xmlns:xlink="http://www.w3.org/1999/xlink" x="0px" y="0px"
	 width="24px" height="24px" viewBox="0 0 24 24" enable-background="new 0 0 24 24" xml:space="preserve">
<path fill="none" d="M0,0h24v24H0V0z"/>
<path fill="#A06ECF" d="M10.25,13c0,0.689-0.56,1.25-1.25,1.25S7.75,13.689,7.75,13c0-0.69,0.56-1.25,1.25-1.25
	S10.25,12.31,10.25,13z M15,11.75c-0.689,0-1.25,0.56-1.25,1.25c0,0.689,0.561,1.25,1.25,1.25s1.25-0.561,1.25-1.25
	C16.25,12.31,15.689,11.75,15,11.75z M22,12c0,5.52-4.48,10-10,10C6.48,22,2,17.52,2,12C2,6.48,6.48,2,12,2C17.52,2,22,6.48,22,12z
	 M10.66,4.12C12.06,6.44,14.6,8,17.5,8c0.46,0,0.91-0.05,1.34-0.12C17.439,5.56,14.9,4,12,4C11.54,4,11.09,4.05,10.66,4.12z
	 M4.42,9.47C6.13,8.5,7.45,6.92,8.08,5.03C6.37,6,5.05,7.58,4.42,9.47z M20,12c0-0.78-0.12-1.53-0.33-2.24
	C18.971,9.91,18.25,10,17.5,10c-3.13,0-5.92-1.44-7.76-3.69C8.69,8.87,6.6,10.88,4,11.86C4.01,11.9,4,11.95,4,12c0,4.41,3.59,8,8,8
	S20,16.41,20,12z"/>
</svg>
